<mxfile host="app.diagrams.net" agent="Mozilla/5.0 (Windows NT 10.0; Win64; x64) AppleWebKit/537.36 (KHTML, like Gecko) Chrome/131.0.0.0 Safari/537.36" version="26.0.6">
  <diagram id="C5RBs43oDa-KdzZeNtuy" name="Page-1">
    <mxGraphModel dx="1434" dy="772" grid="1" gridSize="10" guides="1" tooltips="1" connect="1" arrows="1" fold="1" page="1" pageScale="1" pageWidth="827" pageHeight="1169" math="0" shadow="0">
      <root>
        <mxCell id="WIyWlLk6GJQsqaUBKTNV-0" />
        <mxCell id="WIyWlLk6GJQsqaUBKTNV-1" parent="WIyWlLk6GJQsqaUBKTNV-0" />
        <mxCell id="FgegPoYQqCbtd4iQlpau-4" value="DatosProfesionales" style="html=1;overflow=block;blockSpacing=1;swimlane;childLayout=stackLayout;horizontal=1;horizontalStack=0;resizeParent=1;resizeParentMax=0;resizeLast=0;collapsible=0;fontStyle=0;marginBottom=0;swimlaneFillColor=#ffffff;startSize=25;whiteSpace=wrap;fontSize=13;align=center;spacing=0;strokeColor=#d79b00;strokeOpacity=100;fillOpacity=100;fillColor=#ffe6cc;strokeWidth=1.5;" parent="WIyWlLk6GJQsqaUBKTNV-1" vertex="1">
          <mxGeometry x="90" y="540" width="300" height="304.75" as="geometry" />
        </mxCell>
        <mxCell id="FgegPoYQqCbtd4iQlpau-5" value="- dni: String&#xa;- categoria: String&#xa;- sueldoBrutoAnual: float" style="part=1;html=1;resizeHeight=0;strokeColor=none;fillColor=none;align=left;verticalAlign=middle;spacingLeft=4;spacingRight=4;overflow=hidden;rotatable=0;points=[[0,0.5],[1,0.5]];portConstraint=eastwest;swimlaneFillColor=#ffffff;strokeOpacity=100;fillOpacity=100;whiteSpace=wrap;fontSize=13;" parent="FgegPoYQqCbtd4iQlpau-4" vertex="1">
          <mxGeometry y="25" width="300" height="117" as="geometry" />
        </mxCell>
        <mxCell id="FgegPoYQqCbtd4iQlpau-6" value="" style="line;strokeWidth=1;fillColor=none;align=left;verticalAlign=middle;spacingTop=-1;spacingLeft=3;spacingRight=3;rotatable=0;labelPosition=right;points=[];portConstraint=eastwest;" parent="FgegPoYQqCbtd4iQlpau-4" vertex="1">
          <mxGeometry y="142" width="300" height="8" as="geometry" />
        </mxCell>
        <mxCell id="FgegPoYQqCbtd4iQlpau-7" value="+ getDni() : String&#xa;+ getCategoria(): String&#xa;+ getSueldoBrutoAnual(): float&#xa;+ setDni(String) : void&#xa;+ setCategoria(String) : void&#xa;+ setSueldoBrutoAnual(float) : void" style="part=1;html=1;resizeHeight=0;strokeColor=none;fillColor=none;align=left;verticalAlign=middle;spacingLeft=4;spacingRight=4;overflow=hidden;rotatable=0;points=[[0,0.5],[1,0.5]];portConstraint=eastwest;swimlaneFillColor=#ffffff;strokeOpacity=100;fillOpacity=100;whiteSpace=wrap;fontSize=13;" parent="FgegPoYQqCbtd4iQlpau-4" vertex="1">
          <mxGeometry y="150" width="300" height="154.75" as="geometry" />
        </mxCell>
        <mxCell id="FgegPoYQqCbtd4iQlpau-8" value="Proyecto" style="html=1;overflow=block;blockSpacing=1;swimlane;childLayout=stackLayout;horizontal=1;horizontalStack=0;resizeParent=1;resizeParentMax=0;resizeLast=0;collapsible=0;fontStyle=0;marginBottom=0;swimlaneFillColor=#ffffff;startSize=25;whiteSpace=wrap;fontSize=13;align=center;spacing=0;strokeColor=#82b366;strokeOpacity=100;fillOpacity=100;fillColor=#d5e8d4;strokeWidth=1.5;" parent="WIyWlLk6GJQsqaUBKTNV-1" vertex="1">
          <mxGeometry x="960" y="30" width="300" height="354.75" as="geometry" />
        </mxCell>
        <mxCell id="FgegPoYQqCbtd4iQlpau-9" value="- id : int&#xa;- fechaInicio : Date&#xa;- fechaFin : Date&#xa;- nombre : String" style="part=1;html=1;resizeHeight=0;strokeColor=none;fillColor=none;align=left;verticalAlign=middle;spacingLeft=4;spacingRight=4;overflow=hidden;rotatable=0;points=[[0,0.5],[1,0.5]];portConstraint=eastwest;swimlaneFillColor=#ffffff;strokeOpacity=100;fillOpacity=100;whiteSpace=wrap;fontSize=13;" parent="FgegPoYQqCbtd4iQlpau-8" vertex="1">
          <mxGeometry y="25" width="300" height="142" as="geometry" />
        </mxCell>
        <mxCell id="FgegPoYQqCbtd4iQlpau-10" value="" style="line;strokeWidth=1;fillColor=none;align=left;verticalAlign=middle;spacingTop=-1;spacingLeft=3;spacingRight=3;rotatable=0;labelPosition=right;points=[];portConstraint=eastwest;" parent="FgegPoYQqCbtd4iQlpau-8" vertex="1">
          <mxGeometry y="167" width="300" height="8" as="geometry" />
        </mxCell>
        <mxCell id="FgegPoYQqCbtd4iQlpau-11" value="+ getId() : int&#xa;+ getFechaInicio(): Date&#xa;+ getFechaFin: Date&#xa;+ getNombre() : String&#xa;+ setId(int) : void&#xa;+ setFechaInicio(Date) : void&#xa;+ setFechaFin(Date) : void&#xa;+ setNombre(String) : void" style="part=1;html=1;resizeHeight=0;strokeColor=none;fillColor=none;align=left;verticalAlign=middle;spacingLeft=4;spacingRight=4;overflow=hidden;rotatable=0;points=[[0,0.5],[1,0.5]];portConstraint=eastwest;swimlaneFillColor=#ffffff;strokeOpacity=100;fillOpacity=100;whiteSpace=wrap;fontSize=13;" parent="FgegPoYQqCbtd4iQlpau-8" vertex="1">
          <mxGeometry y="175" width="300" height="179.75" as="geometry" />
        </mxCell>
        <mxCell id="FgegPoYQqCbtd4iQlpau-12" value="Sede" style="html=1;overflow=block;blockSpacing=1;swimlane;childLayout=stackLayout;horizontal=1;horizontalStack=0;resizeParent=1;resizeParentMax=0;resizeLast=0;collapsible=0;fontStyle=0;marginBottom=0;swimlaneFillColor=#ffffff;startSize=25;whiteSpace=wrap;fontSize=13;align=center;spacing=0;strokeColor=#b85450;strokeOpacity=100;fillOpacity=100;fillColor=#f8cecc;strokeWidth=1.5;" parent="WIyWlLk6GJQsqaUBKTNV-1" vertex="1">
          <mxGeometry x="563" y="45" width="300" height="256.75" as="geometry" />
        </mxCell>
        <mxCell id="FgegPoYQqCbtd4iQlpau-13" value="- id : int&#xa;- nombre : String" style="part=1;html=1;resizeHeight=0;strokeColor=none;fillColor=none;align=left;verticalAlign=middle;spacingLeft=4;spacingRight=4;overflow=hidden;rotatable=0;points=[[0,0.5],[1,0.5]];portConstraint=eastwest;swimlaneFillColor=#ffffff;strokeOpacity=100;fillOpacity=100;whiteSpace=wrap;fontSize=13;" parent="FgegPoYQqCbtd4iQlpau-12" vertex="1">
          <mxGeometry y="25" width="300" height="93" as="geometry" />
        </mxCell>
        <mxCell id="FgegPoYQqCbtd4iQlpau-14" value="" style="line;strokeWidth=1;fillColor=none;align=left;verticalAlign=middle;spacingTop=-1;spacingLeft=3;spacingRight=3;rotatable=0;labelPosition=right;points=[];portConstraint=eastwest;" parent="FgegPoYQqCbtd4iQlpau-12" vertex="1">
          <mxGeometry y="118" width="300" height="8" as="geometry" />
        </mxCell>
        <mxCell id="FgegPoYQqCbtd4iQlpau-15" value="+ getId() : int&#xa;+ getNombre() : String&#xa;+ setId(int) : void&#xa;+ setNombre(String) : void" style="part=1;html=1;resizeHeight=0;strokeColor=none;fillColor=none;align=left;verticalAlign=middle;spacingLeft=4;spacingRight=4;overflow=hidden;rotatable=0;points=[[0,0.5],[1,0.5]];portConstraint=eastwest;swimlaneFillColor=#ffffff;strokeOpacity=100;fillOpacity=100;whiteSpace=wrap;fontSize=13;" parent="FgegPoYQqCbtd4iQlpau-12" vertex="1">
          <mxGeometry y="126" width="300" height="130.75" as="geometry" />
        </mxCell>
        <mxCell id="FgegPoYQqCbtd4iQlpau-16" value="Departamento" style="html=1;overflow=block;blockSpacing=1;swimlane;childLayout=stackLayout;horizontal=1;horizontalStack=0;resizeParent=1;resizeParentMax=0;resizeLast=0;collapsible=0;fontStyle=0;marginBottom=0;swimlaneFillColor=#ffffff;startSize=25;whiteSpace=wrap;fontSize=13;align=center;spacing=0;strokeColor=#d6b656;strokeOpacity=100;fillOpacity=100;fillColor=#fff2cc;strokeWidth=1.5;" parent="WIyWlLk6GJQsqaUBKTNV-1" vertex="1">
          <mxGeometry x="420" y="540" width="300" height="304.75" as="geometry" />
        </mxCell>
        <mxCell id="FgegPoYQqCbtd4iQlpau-17" value="- id : int&#xa;- nombre : String&#xa;- idSede : int" style="part=1;html=1;resizeHeight=0;strokeColor=none;fillColor=none;align=left;verticalAlign=middle;spacingLeft=4;spacingRight=4;overflow=hidden;rotatable=0;points=[[0,0.5],[1,0.5]];portConstraint=eastwest;swimlaneFillColor=#ffffff;strokeOpacity=100;fillOpacity=100;whiteSpace=wrap;fontSize=13;" parent="FgegPoYQqCbtd4iQlpau-16" vertex="1">
          <mxGeometry y="25" width="300" height="117" as="geometry" />
        </mxCell>
        <mxCell id="FgegPoYQqCbtd4iQlpau-18" value="" style="line;strokeWidth=1;fillColor=none;align=left;verticalAlign=middle;spacingTop=-1;spacingLeft=3;spacingRight=3;rotatable=0;labelPosition=right;points=[];portConstraint=eastwest;" parent="FgegPoYQqCbtd4iQlpau-16" vertex="1">
          <mxGeometry y="142" width="300" height="8" as="geometry" />
        </mxCell>
        <mxCell id="FgegPoYQqCbtd4iQlpau-19" value="+ getId() : int&#xa;+ getNombre() : String&#xa;+ getIdSede() : int&#xa;+ setId(int) : void&#xa;+ setNombre(String) : void&#xa;+ setIdSede(int) : void" style="part=1;html=1;resizeHeight=0;strokeColor=none;fillColor=none;align=left;verticalAlign=middle;spacingLeft=4;spacingRight=4;overflow=hidden;rotatable=0;points=[[0,0.5],[1,0.5]];portConstraint=eastwest;swimlaneFillColor=#ffffff;strokeOpacity=100;fillOpacity=100;whiteSpace=wrap;fontSize=13;" parent="FgegPoYQqCbtd4iQlpau-16" vertex="1">
          <mxGeometry y="150" width="300" height="154.75" as="geometry" />
        </mxCell>
        <mxCell id="FgegPoYQqCbtd4iQlpau-20" value="Empleado" style="html=1;overflow=block;blockSpacing=1;swimlane;childLayout=stackLayout;horizontal=1;horizontalStack=0;resizeParent=1;resizeParentMax=0;resizeLast=0;collapsible=0;fontStyle=0;marginBottom=0;swimlaneFillColor=#ffffff;startSize=25;whiteSpace=wrap;fontSize=13;align=center;spacing=0;strokeColor=#6c8ebf;strokeOpacity=100;fillOpacity=100;fillColor=#dae8fc;strokeWidth=1.5;" parent="WIyWlLk6GJQsqaUBKTNV-1" vertex="1">
          <mxGeometry x="90" y="30" width="300" height="304.75" as="geometry" />
        </mxCell>
        <mxCell id="FgegPoYQqCbtd4iQlpau-21" value="- dni : String&#xa;- nombre : String&#xa;- idDepartamento : int" style="part=1;html=1;resizeHeight=0;strokeColor=none;fillColor=none;align=left;verticalAlign=middle;spacingLeft=4;spacingRight=4;overflow=hidden;rotatable=0;points=[[0,0.5],[1,0.5]];portConstraint=eastwest;swimlaneFillColor=#ffffff;strokeOpacity=100;fillOpacity=100;whiteSpace=wrap;fontSize=13;" parent="FgegPoYQqCbtd4iQlpau-20" vertex="1">
          <mxGeometry y="25" width="300" height="117" as="geometry" />
        </mxCell>
        <mxCell id="FgegPoYQqCbtd4iQlpau-22" value="" style="line;strokeWidth=1;fillColor=none;align=left;verticalAlign=middle;spacingTop=-1;spacingLeft=3;spacingRight=3;rotatable=0;labelPosition=right;points=[];portConstraint=eastwest;" parent="FgegPoYQqCbtd4iQlpau-20" vertex="1">
          <mxGeometry y="142" width="300" height="8" as="geometry" />
        </mxCell>
        <mxCell id="FgegPoYQqCbtd4iQlpau-23" value="+ getDni() : String&#xa;+ getNombre() : String&#xa;+ getIdDepartamento() : int&#xa;+ setDni(String) : void&#xa;+ setNombre(String) : void&#xa;+ setIdDepartamento(int) : void" style="part=1;html=1;resizeHeight=0;strokeColor=none;fillColor=none;align=left;verticalAlign=middle;spacingLeft=4;spacingRight=4;overflow=hidden;rotatable=0;points=[[0,0.5],[1,0.5]];portConstraint=eastwest;swimlaneFillColor=#ffffff;strokeOpacity=100;fillOpacity=100;whiteSpace=wrap;fontSize=13;" parent="FgegPoYQqCbtd4iQlpau-20" vertex="1">
          <mxGeometry y="150" width="300" height="154.75" as="geometry" />
        </mxCell>
        <mxCell id="FgegPoYQqCbtd4iQlpau-24" value="ProyectoSede" style="html=1;overflow=block;blockSpacing=1;swimlane;childLayout=stackLayout;horizontal=1;horizontalStack=0;resizeParent=1;resizeParentMax=0;resizeLast=0;collapsible=0;fontStyle=0;marginBottom=0;swimlaneFillColor=#ffffff;startSize=25;whiteSpace=wrap;fontSize=13;align=center;spacing=0;strokeColor=#9673a6;strokeOpacity=100;fillOpacity=100;fillColor=#e1d5e7;strokeWidth=1.5;" parent="WIyWlLk6GJQsqaUBKTNV-1" vertex="1">
          <mxGeometry x="863" y="512" width="300" height="354.75" as="geometry" />
        </mxCell>
        <mxCell id="FgegPoYQqCbtd4iQlpau-25" value="- idProyecto : int&#xa;- idSede : int&#xa;- fechaInicio : Date&#xa;- fechaFin : Date" style="part=1;html=1;resizeHeight=0;strokeColor=none;fillColor=none;align=left;verticalAlign=middle;spacingLeft=4;spacingRight=4;overflow=hidden;rotatable=0;points=[[0,0.5],[1,0.5]];portConstraint=eastwest;swimlaneFillColor=#ffffff;strokeOpacity=100;fillOpacity=100;whiteSpace=wrap;fontSize=13;" parent="FgegPoYQqCbtd4iQlpau-24" vertex="1">
          <mxGeometry y="25" width="300" height="142" as="geometry" />
        </mxCell>
        <mxCell id="FgegPoYQqCbtd4iQlpau-26" value="" style="line;strokeWidth=1;fillColor=none;align=left;verticalAlign=middle;spacingTop=-1;spacingLeft=3;spacingRight=3;rotatable=0;labelPosition=right;points=[];portConstraint=eastwest;" parent="FgegPoYQqCbtd4iQlpau-24" vertex="1">
          <mxGeometry y="167" width="300" height="8" as="geometry" />
        </mxCell>
        <mxCell id="FgegPoYQqCbtd4iQlpau-27" value="+ getIdProyecto() : int&#xa;+ getIdSede() : int&#xa;+ getFechaInicio() : Date&#xa;+ getFechaFin() : Date&#xa;+ setIdProyecto(int) : void&#xa;+ setIdSede(int) : void&#xa;+ setFechaInicio(Date) : void&#xa;+ setFechaFin(Date)  : void" style="part=1;html=1;resizeHeight=0;strokeColor=none;fillColor=none;align=left;verticalAlign=middle;spacingLeft=4;spacingRight=4;overflow=hidden;rotatable=0;points=[[0,0.5],[1,0.5]];portConstraint=eastwest;swimlaneFillColor=#ffffff;strokeOpacity=100;fillOpacity=100;whiteSpace=wrap;fontSize=13;" parent="FgegPoYQqCbtd4iQlpau-24" vertex="1">
          <mxGeometry y="175" width="300" height="179.75" as="geometry" />
        </mxCell>
        <mxCell id="FgegPoYQqCbtd4iQlpau-28" value="" style="html=1;jettySize=18;whiteSpace=wrap;fontSize=13;strokeColor=#333333;strokeOpacity=100;strokeWidth=0.8;rounded=1;arcSize=24;edgeStyle=orthogonalEdgeStyle;startArrow=none;endArrow=block;endFill=1;exitX=0.5;exitY=1.004;exitPerimeter=0;entryX=0.5;entryY=-0.003;entryPerimeter=0;lucidId=q3.JrJU8sa.W;" parent="WIyWlLk6GJQsqaUBKTNV-1" source="FgegPoYQqCbtd4iQlpau-12" target="FgegPoYQqCbtd4iQlpau-16" edge="1">
          <mxGeometry width="100" height="100" relative="1" as="geometry">
            <Array as="points" />
          </mxGeometry>
        </mxCell>
        <mxCell id="FgegPoYQqCbtd4iQlpau-29" value="" style="html=1;jettySize=18;whiteSpace=wrap;fontSize=13;strokeColor=#333333;strokeOpacity=100;strokeWidth=0.8;rounded=1;arcSize=24;edgeStyle=orthogonalEdgeStyle;startArrow=none;endArrow=block;endFill=1;exitX=0.635;exitY=1.004;exitPerimeter=0;entryX=-0.002;entryY=0.5;entryPerimeter=0;lucidId=D3.JcbuY1j_F;" parent="WIyWlLk6GJQsqaUBKTNV-1" source="FgegPoYQqCbtd4iQlpau-12" target="FgegPoYQqCbtd4iQlpau-24" edge="1">
          <mxGeometry width="100" height="100" relative="1" as="geometry">
            <Array as="points" />
          </mxGeometry>
        </mxCell>
        <mxCell id="FgegPoYQqCbtd4iQlpau-30" value="" style="html=1;jettySize=18;whiteSpace=wrap;fontSize=13;strokeColor=#333333;strokeOpacity=100;strokeWidth=0.8;rounded=1;arcSize=24;edgeStyle=orthogonalEdgeStyle;startArrow=none;endArrow=block;endFill=1;exitX=0.5;exitY=1.002;exitPerimeter=0;entryX=1.003;entryY=0.5;entryPerimeter=0;lucidId=Q3.JiB~8W05B;" parent="WIyWlLk6GJQsqaUBKTNV-1" source="FgegPoYQqCbtd4iQlpau-8" target="FgegPoYQqCbtd4iQlpau-24" edge="1">
          <mxGeometry width="100" height="100" relative="1" as="geometry">
            <Array as="points" />
          </mxGeometry>
        </mxCell>
        <mxCell id="FgegPoYQqCbtd4iQlpau-31" value="" style="html=1;jettySize=18;whiteSpace=wrap;fontSize=13;strokeColor=#333333;strokeOpacity=100;strokeWidth=0.8;rounded=1;arcSize=24;edgeStyle=orthogonalEdgeStyle;startArrow=none;endArrow=block;endFill=1;exitX=0.5;exitY=1.003;exitPerimeter=0;entryX=0.5;entryY=-0.003;entryPerimeter=0;lucidId=33.JXcC.a~SP;" parent="WIyWlLk6GJQsqaUBKTNV-1" source="FgegPoYQqCbtd4iQlpau-20" target="FgegPoYQqCbtd4iQlpau-4" edge="1">
          <mxGeometry width="100" height="100" relative="1" as="geometry">
            <Array as="points" />
          </mxGeometry>
        </mxCell>
        <mxCell id="FgegPoYQqCbtd4iQlpau-32" value="&lt;span style=&quot;font-size: 16px;&quot;&gt;Tiene&lt;/span&gt;" style="text;html=1;align=center;verticalAlign=middle;whiteSpace=wrap;rounded=0;" parent="WIyWlLk6GJQsqaUBKTNV-1" vertex="1">
          <mxGeometry x="620" y="370" width="60" height="30" as="geometry" />
        </mxCell>
        <mxCell id="FgegPoYQqCbtd4iQlpau-33" value="&lt;span style=&quot;font-size: 16px;&quot;&gt;1*&lt;/span&gt;" style="text;html=1;align=center;verticalAlign=middle;whiteSpace=wrap;rounded=0;" parent="WIyWlLk6GJQsqaUBKTNV-1" vertex="1">
          <mxGeometry x="570" y="510" width="60" height="30" as="geometry" />
        </mxCell>
        <mxCell id="FgegPoYQqCbtd4iQlpau-34" value="&lt;span style=&quot;font-size: 16px;&quot;&gt;0..&lt;/span&gt;" style="text;html=1;align=center;verticalAlign=middle;whiteSpace=wrap;rounded=0;" parent="WIyWlLk6GJQsqaUBKTNV-1" vertex="1">
          <mxGeometry x="660" y="310" width="60" height="30" as="geometry" />
        </mxCell>
        <mxCell id="FgegPoYQqCbtd4iQlpau-35" value="&lt;span style=&quot;font-size: 16px;&quot;&gt;Tiene&lt;/span&gt;" style="text;html=1;align=center;verticalAlign=middle;whiteSpace=wrap;rounded=0;" parent="WIyWlLk6GJQsqaUBKTNV-1" vertex="1">
          <mxGeometry x="260" y="430" width="60" height="30" as="geometry" />
        </mxCell>
        <mxCell id="FgegPoYQqCbtd4iQlpau-36" value="&lt;span style=&quot;font-size: 16px;&quot;&gt;1&lt;/span&gt;" style="text;html=1;align=center;verticalAlign=middle;whiteSpace=wrap;rounded=0;" parent="WIyWlLk6GJQsqaUBKTNV-1" vertex="1">
          <mxGeometry x="240" y="354.75" width="60" height="30" as="geometry" />
        </mxCell>
        <mxCell id="FgegPoYQqCbtd4iQlpau-37" value="&lt;span style=&quot;font-size: 16px;&quot;&gt;1&lt;/span&gt;" style="text;html=1;align=center;verticalAlign=middle;whiteSpace=wrap;rounded=0;" parent="WIyWlLk6GJQsqaUBKTNV-1" vertex="1">
          <mxGeometry x="240" y="510" width="60" height="30" as="geometry" />
        </mxCell>
        <mxCell id="FgegPoYQqCbtd4iQlpau-38" value="&lt;span style=&quot;font-size: 16px;&quot;&gt;0..&lt;/span&gt;" style="text;html=1;align=center;verticalAlign=middle;whiteSpace=wrap;rounded=0;" parent="WIyWlLk6GJQsqaUBKTNV-1" vertex="1">
          <mxGeometry x="1181" y="674.38" width="60" height="30" as="geometry" />
        </mxCell>
        <mxCell id="FgegPoYQqCbtd4iQlpau-39" value="&lt;span style=&quot;font-size: 16px;&quot;&gt;1*&lt;/span&gt;" style="text;html=1;align=center;verticalAlign=middle;whiteSpace=wrap;rounded=0;" parent="WIyWlLk6GJQsqaUBKTNV-1" vertex="1">
          <mxGeometry x="1121" y="390" width="60" height="30" as="geometry" />
        </mxCell>
        <mxCell id="FgegPoYQqCbtd4iQlpau-40" value="&lt;span style=&quot;font-size: 16px;&quot;&gt;Está&lt;/span&gt;" style="text;html=1;align=center;verticalAlign=middle;whiteSpace=wrap;rounded=0;" parent="WIyWlLk6GJQsqaUBKTNV-1" vertex="1">
          <mxGeometry x="1211" y="555" width="60" height="30" as="geometry" />
        </mxCell>
        <mxCell id="FgegPoYQqCbtd4iQlpau-41" value="&lt;span style=&quot;font-size: 16px;&quot;&gt;Está&lt;/span&gt;" style="text;html=1;align=center;verticalAlign=middle;whiteSpace=wrap;rounded=0;" parent="WIyWlLk6GJQsqaUBKTNV-1" vertex="1">
          <mxGeometry x="767" y="500" width="60" height="30" as="geometry" />
        </mxCell>
        <mxCell id="FgegPoYQqCbtd4iQlpau-42" value="&lt;span style=&quot;font-size: 16px;&quot;&gt;1*&lt;/span&gt;" style="text;html=1;align=center;verticalAlign=middle;whiteSpace=wrap;rounded=0;" parent="WIyWlLk6GJQsqaUBKTNV-1" vertex="1">
          <mxGeometry x="790" y="644.38" width="60" height="30" as="geometry" />
        </mxCell>
        <mxCell id="FgegPoYQqCbtd4iQlpau-43" value="&lt;span style=&quot;font-size: 16px;&quot;&gt;0..&lt;/span&gt;" style="text;html=1;align=center;verticalAlign=middle;whiteSpace=wrap;rounded=0;" parent="WIyWlLk6GJQsqaUBKTNV-1" vertex="1">
          <mxGeometry x="750" y="310" width="60" height="30" as="geometry" />
        </mxCell>
        <mxCell id="DH3rXu_swgAdDFIKM5Oi-1" style="edgeStyle=orthogonalEdgeStyle;rounded=0;orthogonalLoop=1;jettySize=auto;html=1;exitX=1;exitY=0.5;exitDx=0;exitDy=0;entryX=0.277;entryY=-0.013;entryDx=0;entryDy=0;entryPerimeter=0;" edge="1" parent="WIyWlLk6GJQsqaUBKTNV-1" source="FgegPoYQqCbtd4iQlpau-23" target="FgegPoYQqCbtd4iQlpau-16">
          <mxGeometry relative="1" as="geometry" />
        </mxCell>
        <mxCell id="DH3rXu_swgAdDFIKM5Oi-2" value="&lt;span style=&quot;font-size: 16px;&quot;&gt;0..&lt;/span&gt;" style="text;html=1;align=center;verticalAlign=middle;whiteSpace=wrap;rounded=0;" vertex="1" parent="WIyWlLk6GJQsqaUBKTNV-1">
          <mxGeometry x="390" y="220" width="60" height="30" as="geometry" />
        </mxCell>
        <mxCell id="DH3rXu_swgAdDFIKM5Oi-3" value="&lt;span style=&quot;font-size: 16px;&quot;&gt;1*&lt;/span&gt;" style="text;html=1;align=center;verticalAlign=middle;whiteSpace=wrap;rounded=0;" vertex="1" parent="WIyWlLk6GJQsqaUBKTNV-1">
          <mxGeometry x="500" y="500" width="60" height="30" as="geometry" />
        </mxCell>
        <mxCell id="DH3rXu_swgAdDFIKM5Oi-4" value="&lt;span style=&quot;font-size: 16px;&quot;&gt;Está&lt;/span&gt;" style="text;html=1;align=center;verticalAlign=middle;whiteSpace=wrap;rounded=0;" vertex="1" parent="WIyWlLk6GJQsqaUBKTNV-1">
          <mxGeometry x="510" y="360" width="60" height="30" as="geometry" />
        </mxCell>
      </root>
    </mxGraphModel>
  </diagram>
</mxfile>
